<svg
  width="64"
  height="64"
<<<<<<< ours
  viewBox="0 0 64 64"
  fill="none"
  xmlns="http://www.w3.org/2000/svg"
>
  <title>Site favicon</title>

  <rect
    width="64"
    height="64"
    rx="16"
    fill="#151515"
  />

  <path
    d="M15.3 36.5L29 18.8C30.35 17.06 32.85 16.74 34.59 18.09L36.14 19.29C37.88 20.64 38.2 23.14 36.85 24.88L23.15 42.58C21.8 44.32 19.3 44.64 17.56 43.29L16.01 42.09C14.27 40.74 13.95 38.24 15.3 36.5Z"
    fill="#FF482F"
  />

  <path
    d="M32.3 39.9L42.9 26.2C44.25 24.46 46.75 24.14 48.49 25.49L50.04 26.69C51.78 28.04 52.1 30.54 50.75 32.28L40.15 45.98C38.8 47.72 36.3 48.04 34.56 46.69L33.01 45.49C31.27 44.14 30.95 41.64 32.3 39.9Z"
    fill="#FF482F"
  />

  <circle
    cx="19"
    cy="20"
    r="4.4"
    fill="#FFB21A"
  />

  <path
    d="M39.4 16.4L43.1 11.6C44.45 9.86 46.95 9.54 48.69 10.89L50.24 12.09C51.98 13.44 52.3 15.94 50.95 17.68L47.25 22.48C45.9 24.22 43.4 24.54 41.66 23.19L40.11 21.99C38.37 20.64 38.05 18.14 39.4 16.4Z"
    fill="#FFB21A"
=======
  viewBox="0 0 96 96"
  fill="none"
  xmlns="http://www.w3.org/2000/svg"
>
  <title>Averon Performance favicon</title>

  <path
    d="M48 52L24.34 75.66C18.16 69.48 14.33 60.94 14.33 51.51C14.33 32.94 29.44 17.89 48 18V52Z"
    fill="#1495F5"
  />

  <path
    d="M48 52V86C38.77 86 30.4 82.32 24.28 76.35L48 52Z"
    fill="#FF383D"
  />

  <path
    d="M48 52L72.06 76.06C65.92 82.2 57.42 86 48 86V52Z"
    fill="#D90000"
  />

  <path
    d="M48 52L81.49 46.09C83.09 56.95 79.21 68.43 72.06 76.06L48 52Z"
    fill="#00C800"
  />

  <path
    d="M60.25 10.98C68.75 11.13 76.94 13.93 83.77 19.01L56.4 49.43V14.83C56.4 12.69 58.11 10.94 60.25 10.98Z"
    fill="#FFEE2E"
  />

  <path
    d="M83.77 19.01C90.09 24.15 94.24 31.27 95.47 39.42C95.83 41.83 94.21 44.08 91.82 44.5L60.95 52.14C57.63 52.73 55.52 48.5 57.76 46.02L83.77 19.01Z"
    fill="#FFC400"
>>>>>>> theirs
  />
</svg>
